<svg height="164" viewBox="0 0 1570 164" width="1570" xmlns="http://www.w3.org/2000/svg" xmlns:xlink="http://www.w3.org/1999/xlink"><clipPath id="a"><path d="m113 25h1570v164h-1570z"/></clipPath><g clip-path="url(#a)" transform="translate(-113 -25)"><path d="m1567.882 1.5-18.162 31.457 18.162 31.458h36.323l18.162-31.458-18.162-31.457z" fill="#f9f9f9" transform="translate(-1417.687 25.5)"/><path d="m1567.882 1.5-18.162 31.457 18.162 31.458h36.323l18.162-31.458-18.162-31.457zm-1.155-2h38.632l19.317 33.457-19.316 33.459h-38.632l-19.316-33.458z" fill="#e8e8e8" transform="translate(-1417.687 25.5)"/><path d="m1567.882 1.5-18.162 31.457 18.162 31.458h36.323l18.162-31.458-18.162-31.457z" fill="#f9f9f9" transform="translate(-520.624 25.5)"/><path d="m1567.882 1.5-18.162 31.457 18.162 31.458h36.323l18.162-31.458-18.162-31.457zm-1.155-2h38.632l19.317 33.457-19.316 33.459h-38.632l-19.316-33.458z" fill="#e8e8e8" transform="translate(-520.624 25.5)"/><path d="m1567.882 1.5-18.162 31.457 18.162 31.458h36.323l18.162-31.458-18.162-31.457z" fill="#f1f1f1" transform="translate(-1417.643 90.209)"/><path d="m1567.882 1.5-18.162 31.457 18.162 31.458h36.323l18.162-31.458-18.162-31.457zm-1.155-2h38.632l19.317 33.457-19.316 33.459h-38.632l-19.316-33.458z" fill="#e8e8e8" transform="translate(-1417.643 90.209)"/><path d="m1567.882 1.5-18.162 31.457 18.162 31.458h36.323l18.162-31.458-18.162-31.457z" fill="#f1f1f1" transform="translate(-520.581 90.209)"/><path d="m1567.882 1.5-18.162 31.457 18.162 31.458h36.323l18.162-31.458-18.162-31.457zm-1.155-2h38.632l19.317 33.457-19.316 33.459h-38.632l-19.316-33.458z" fill="#e8e8e8" transform="translate(-520.581 90.209)"/><path d="m1567.882 79.36-18.162 31.457 18.162 31.458h36.323l18.162-31.458-18.162-31.457z" fill="#f1f1f1" transform="translate(-1473.721 -19.993)"/><path d="m1567.882 79.36-18.162 31.457 18.162 31.458h36.323l18.162-31.458-18.162-31.457zm-1.155-2h38.632l19.317 33.457-19.317 33.458h-38.632l-19.316-33.458z" fill="#e8e8e8" transform="translate(-1473.721 -19.993)"/><path d="m1567.882 1.5-18.162 31.457 18.162 31.458h36.323l18.162-31.458-18.162-31.457z" fill="#f1f1f1" transform="translate(-1305.554 90.209)"/><path d="m1567.882 1.5-18.162 31.457 18.162 31.458h36.323l18.162-31.458-18.162-31.457zm-1.155-2h38.632l19.317 33.457-19.316 33.459h-38.632l-19.316-33.458z" fill="#e8e8e8" transform="translate(-1305.554 90.209)"/><path d="m1567.882 1.5-18.162 31.457 18.162 31.458h36.323l18.162-31.458-18.162-31.457z" fill="#f1f1f1" transform="translate(-408.492 90.209)"/><path d="m1567.882 1.5-18.162 31.457 18.162 31.458h36.323l18.162-31.458-18.162-31.457zm-1.155-2h38.632l19.317 33.457-19.316 33.459h-38.632l-19.316-33.458z" fill="#e8e8e8" transform="translate(-408.492 90.209)"/><path d="m1567.882 79.36-18.162 31.457 18.162 31.458h36.323l18.162-31.458-18.162-31.457z" fill="#f9f9f9" transform="translate(-1361.632 -19.993)"/><path d="m1567.882 79.36-18.162 31.457 18.162 31.458h36.323l18.162-31.458-18.162-31.457zm-1.155-2h38.632l19.317 33.457-19.317 33.458h-38.632l-19.316-33.458z" fill="#e8e8e8" transform="translate(-1361.632 -19.993)"/><path d="m1567.882 79.36-18.162 31.457 18.162 31.458h36.323l18.162-31.458-18.162-31.457z" fill="#f1f1f1" transform="translate(-464.57 -19.993)"/><path d="m1567.882 79.36-18.162 31.457 18.162 31.458h36.323l18.162-31.458-18.162-31.457zm-1.155-2h38.632l19.317 33.457-19.317 33.458h-38.632l-19.316-33.458z" fill="#e8e8e8" transform="translate(-464.57 -19.993)"/><path d="m1567.882 1.5-18.162 31.457 18.162 31.458h36.323l18.162-31.458-18.162-31.457z" fill="#f9f9f9" transform="translate(-969.246 25.5)"/><path d="m1567.882 1.5-18.162 31.457 18.162 31.458h36.323l18.162-31.458-18.162-31.457zm-1.155-2h38.632l19.317 33.457-19.316 33.459h-38.632l-19.316-33.458z" fill="#e8e8e8" transform="translate(-969.246 25.5)"/><path d="m1567.882 1.5-18.162 31.457 18.162 31.458h36.323l18.162-31.458-18.162-31.457z" fill="#f9f9f9" transform="translate(-72.183 25.5)"/><path d="m1567.882 1.5-18.162 31.457 18.162 31.458h36.323l18.162-31.458-18.162-31.457zm-1.155-2h38.632l19.317 33.457-19.316 33.459h-38.632l-19.316-33.458z" fill="#e8e8e8" transform="translate(-72.183 25.5)"/><path d="m1567.882 1.5-18.162 31.457 18.162 31.458h36.323l18.162-31.458-18.162-31.457z" fill="#e8e8e8" transform="translate(-969.202 90.209)"/><path d="m1567.882 1.5-18.162 31.457 18.162 31.458h36.323l18.162-31.458-18.162-31.457zm-1.155-2h38.632l19.317 33.457-19.316 33.459h-38.632l-19.316-33.458z" fill="#e8e8e8" transform="translate(-969.202 90.209)"/><path d="m1567.882 1.5-18.162 31.457 18.162 31.458h36.323l18.162-31.458-18.162-31.457z" fill="#e8e8e8" transform="translate(-72.139 90.209)"/><path d="m1567.882 1.5-18.162 31.457 18.162 31.458h36.323l18.162-31.458-18.162-31.457zm-1.155-2h38.632l19.317 33.457-19.316 33.459h-38.632l-19.316-33.458z" fill="#e8e8e8" transform="translate(-72.139 90.209)"/><path d="m1567.882 79.36-18.162 31.457 18.162 31.458h36.323l18.162-31.458-18.162-31.457z" fill="#f1f1f1" transform="translate(-1025.28 -19.993)"/><path d="m1567.882 79.36-18.162 31.457 18.162 31.458h36.323l18.162-31.458-18.162-31.457zm-1.155-2h38.632l19.317 33.457-19.317 33.458h-38.632l-19.316-33.458z" fill="#e8e8e8" transform="translate(-1025.28 -19.993)"/><path d="m1567.882 79.36-18.162 31.457 18.162 31.458h36.323l18.162-31.458-18.162-31.457z" fill="#f1f1f1" transform="translate(-128.217 -19.993)"/><path d="m1567.882 79.36-18.162 31.457 18.162 31.458h36.323l18.162-31.458-18.162-31.457zm-1.155-2h38.632l19.317 33.457-19.317 33.458h-38.632l-19.316-33.458z" fill="#e8e8e8" transform="translate(-128.217 -19.993)"/><path d="m1567.882 1.5-18.162 31.457 18.162 31.458h36.323l18.162-31.458-18.162-31.457z" fill="#f9f9f9" transform="translate(-857.111 90.209)"/><path d="m1567.882 1.5-18.162 31.457 18.162 31.458h36.323l18.162-31.458-18.162-31.457zm-1.155-2h38.632l19.317 33.457-19.316 33.459h-38.632l-19.316-33.458z" fill="#e8e8e8" transform="translate(-857.111 90.209)"/><path d="m1567.882 1.5-18.162 31.457 18.162 31.458h36.323l18.162-31.458-18.162-31.457z" fill="#f1f1f1" transform="translate(39.952 90.209)"/><path d="m1567.882 1.5-18.162 31.457 18.162 31.458h36.323l18.162-31.458-18.162-31.457zm-1.155-2h38.632l19.317 33.457-19.316 33.459h-38.632l-19.316-33.458z" fill="#e8e8e8" transform="translate(39.952 90.209)"/><path d="m1567.882 79.36-18.162 31.457 18.162 31.458h36.323l18.162-31.458-18.162-31.457z" fill="#f1f1f1" transform="translate(-913.191 -19.993)"/><path d="m1567.882 79.36-18.162 31.457 18.162 31.458h36.323l18.162-31.458-18.162-31.457zm-1.155-2h38.632l19.317 33.457-19.317 33.458h-38.632l-19.316-33.458z" fill="#e8e8e8" transform="translate(-913.191 -19.993)"/><path d="m1567.882 79.36-18.162 31.457 18.162 31.458h36.323l18.162-31.458-18.162-31.457z" fill="#f1f1f1" transform="translate(-16.128 -19.993)"/><path d="m1567.882 79.36-18.162 31.457 18.162 31.458h36.323l18.162-31.458-18.162-31.457zm-1.155-2h38.632l19.317 33.457-19.317 33.458h-38.632l-19.316-33.458z" fill="#e8e8e8" transform="translate(-16.128 -19.993)"/><path d="m1567.882 1.5-18.162 31.457 18.162 31.458h36.323l18.162-31.458-18.162-31.457z" fill="#f1f1f1" transform="translate(-1193.445 90.209)"/><path d="m1567.882 1.5-18.162 31.457 18.162 31.458h36.323l18.162-31.458-18.162-31.457zm-1.155-2h38.632l19.317 33.457-19.316 33.459h-38.632l-19.316-33.458z" fill="#e8e8e8" transform="translate(-1193.445 90.209)"/><path d="m1567.882 1.5-18.162 31.457 18.162 31.458h36.323l18.162-31.458-18.162-31.457z" fill="#f1f1f1" transform="translate(-296.382 90.209)"/><path d="m1567.882 1.5-18.162 31.457 18.162 31.458h36.323l18.162-31.458-18.162-31.457zm-1.155-2h38.632l19.317 33.457-19.316 33.459h-38.632l-19.316-33.458z" fill="#e8e8e8" transform="translate(-296.382 90.209)"/><path d="m1567.882 79.36-18.162 31.457 18.162 31.458h36.323l18.162-31.458-18.162-31.457z" fill="#f9f9f9" transform="translate(-1249.522 -19.993)"/><path d="m1567.882 79.36-18.162 31.457 18.162 31.458h36.323l18.162-31.458-18.162-31.457zm-1.155-2h38.632l19.317 33.457-19.317 33.458h-38.632l-19.316-33.458z" fill="#e8e8e8" transform="translate(-1249.522 -19.993)"/><path d="m1567.882 79.36-18.162 31.457 18.162 31.458h36.323l18.162-31.458-18.162-31.457z" fill="#f1f1f1" transform="translate(-352.459 -19.993)"/><path d="m1567.882 79.36-18.162 31.457 18.162 31.458h36.323l18.162-31.458-18.162-31.457zm-1.155-2h38.632l19.317 33.457-19.317 33.458h-38.632l-19.316-33.458z" fill="#e8e8e8" transform="translate(-352.459 -19.993)"/><path d="m1567.882 1.5-18.162 31.457 18.162 31.458h36.323l18.162-31.458-18.162-31.457z" fill="#f9f9f9" transform="translate(-1081.401 25.5)"/><path d="m1567.882 1.5-18.162 31.457 18.162 31.458h36.323l18.162-31.458-18.162-31.457zm-1.155-2h38.632l19.317 33.457-19.316 33.459h-38.632l-19.316-33.458z" fill="#e8e8e8" transform="translate(-1081.401 25.5)"/><path d="m1567.882 1.5-18.162 31.457 18.162 31.458h36.323l18.162-31.458-18.162-31.457z" fill="#f1f1f1" transform="translate(-184.338 25.5)"/><path d="m1567.882 1.5-18.162 31.457 18.162 31.458h36.323l18.162-31.458-18.162-31.457zm-1.155-2h38.632l19.317 33.457-19.316 33.459h-38.632l-19.316-33.458z" fill="#e8e8e8" transform="translate(-184.338 25.5)"/><path d="m1567.882 1.5-18.162 31.457 18.162 31.458h36.323l18.162-31.458-18.162-31.457z" fill="#f9f9f9" transform="translate(-1081.355 90.209)"/><path d="m1567.882 1.5-18.162 31.457 18.162 31.458h36.323l18.162-31.458-18.162-31.457zm-1.155-2h38.632l19.317 33.457-19.316 33.459h-38.632l-19.316-33.458z" fill="#e8e8e8" transform="translate(-1081.355 90.209)"/><path d="m1567.882 1.5-18.162 31.457 18.162 31.458h36.323l18.162-31.458-18.162-31.457z" fill="#f1f1f1" transform="translate(-184.293 90.209)"/><path d="m1567.882 1.5-18.162 31.457 18.162 31.458h36.323l18.162-31.458-18.162-31.457zm-1.155-2h38.632l19.317 33.457-19.316 33.459h-38.632l-19.316-33.458z" fill="#e8e8e8" transform="translate(-184.293 90.209)"/><path d="m1567.882 79.36-18.162 31.457 18.162 31.458h36.323l18.162-31.458-18.162-31.457z" fill="#f1f1f1" transform="translate(-1137.435 -19.993)"/><path d="m1567.882 79.36-18.162 31.457 18.162 31.458h36.323l18.162-31.458-18.162-31.457zm-1.155-2h38.632l19.317 33.457-19.317 33.458h-38.632l-19.316-33.458z" fill="#e8e8e8" transform="translate(-1137.435 -19.993)"/><path d="m1567.882 79.36-18.162 31.457 18.162 31.458h36.323l18.162-31.458-18.162-31.457z" fill="#f9f9f9" transform="translate(-240.372 -19.993)"/><path d="m1567.882 79.36-18.162 31.457 18.162 31.458h36.323l18.162-31.458-18.162-31.457zm-1.155-2h38.632l19.317 33.457-19.317 33.458h-38.632l-19.316-33.458z" fill="#e8e8e8" transform="translate(-240.372 -19.993)"/><path d="m1567.882 1.5-18.162 31.457 18.162 31.458h36.323l18.162-31.458-18.162-31.457z" fill="#f9f9f9" transform="translate(-745.046 25.5)"/><path d="m1567.882 1.5-18.162 31.457 18.162 31.458h36.323l18.162-31.458-18.162-31.457zm-1.155-2h38.632l19.317 33.457-19.316 33.459h-38.632l-19.316-33.458z" fill="#e8e8e8" transform="translate(-745.046 25.5)"/><path d="m1567.882 1.5-18.162 31.457 18.162 31.458h36.323l18.162-31.458-18.162-31.457z" fill="#f1f1f1" transform="translate(-745 90.209)"/><path d="m1567.882 1.5-18.162 31.457 18.162 31.458h36.323l18.162-31.458-18.162-31.457zm-1.155-2h38.632l19.317 33.457-19.316 33.459h-38.632l-19.316-33.458z" fill="#e8e8e8" transform="translate(-745 90.209)"/><path d="m1567.882 79.36-18.162 31.457 18.162 31.458h36.323l18.162-31.458-18.162-31.457z" fill="#f9f9f9" transform="translate(-801.08 -19.993)"/><path d="m1567.882 79.36-18.162 31.457 18.162 31.458h36.323l18.162-31.458-18.162-31.457zm-1.155-2h38.632l19.317 33.457-19.317 33.458h-38.632l-19.316-33.458z" fill="#e8e8e8" transform="translate(-801.08 -19.993)"/><path d="m1567.882 79.36-18.162 31.457 18.162 31.458h36.323l18.162-31.458-18.162-31.457z" fill="#f1f1f1" transform="translate(95.982 -19.993)"/><path d="m1567.882 79.36-18.162 31.457 18.162 31.458h36.323l18.162-31.458-18.162-31.457zm-1.155-2h38.632l19.317 33.457-19.317 33.458h-38.632l-19.316-33.458z" fill="#e8e8e8" transform="translate(95.982 -19.993)"/><path d="m1567.882 1.5-18.162 31.457 18.162 31.458h36.323l18.162-31.458-18.162-31.457z" fill="#f1f1f1" transform="translate(-632.913 90.209)"/><path d="m1567.882 1.5-18.162 31.457 18.162 31.458h36.323l18.162-31.458-18.162-31.457zm-1.155-2h38.632l19.317 33.457-19.316 33.459h-38.632l-19.316-33.458z" fill="#e8e8e8" transform="translate(-632.913 90.209)"/><path d="m1567.882 79.36-18.162 31.457 18.162 31.458h36.323l18.162-31.458-18.162-31.457z" fill="#f1f1f1" transform="translate(-688.992 -19.993)"/><path d="m1567.882 79.36-18.162 31.457 18.162 31.458h36.323l18.162-31.458-18.162-31.457zm-1.155-2h38.632l19.317 33.457-19.317 33.458h-38.632l-19.316-33.458z" fill="#e8e8e8" transform="translate(-688.992 -19.993)"/><path d="m1567.882 79.36-18.162 31.457 18.162 31.458h36.323l18.162-31.458-18.162-31.457z" fill="#f9f9f9" transform="translate(-576.881 -19.993)"/><path d="m1567.882 79.36-18.162 31.457 18.162 31.458h36.323l18.162-31.458-18.162-31.457zm-1.155-2h38.632l19.317 33.457-19.317 33.458h-38.632l-19.316-33.458z" fill="#e8e8e8" transform="translate(-576.881 -19.993)"/><path d="m1671.292 40.428 18.161 31.456-18.161 31.457h-36.323l-18.162-31.457 18.162-31.456z" fill="#f1f1f1" transform="translate(-1540.807 83.66)"/><path d="m1634.969 40.428-18.162 31.456 18.162 31.457h36.323l18.161-31.457-18.161-31.456zm-1.155-2h38.632l19.316 33.456-19.316 33.457h-38.632l-19.314-33.457z" fill="#e8e8e8" transform="translate(-1540.807 83.66)"/><path d="m1671.292 40.428 18.161 31.456-18.161 31.457h-36.323l-18.162-31.457 18.162-31.456z" fill="#f1f1f1" transform="translate(-1428.718 83.66)"/><g fill="#e8e8e8"><path d="m1634.969 40.428-18.162 31.456 18.162 31.457h36.323l18.161-31.457-18.161-31.456zm-1.155-2h38.632l19.316 33.456-19.316 33.457h-38.632l-19.314-33.457z" transform="translate(-1428.718 83.66)"/><path d="m1671.292 40.428 18.161 31.456-18.161 31.457h-36.323l-18.162-31.457 18.162-31.456z" transform="translate(-531.656 83.66)"/><path d="m1634.969 40.428-18.162 31.456 18.162 31.457h36.323l18.161-31.457-18.161-31.456zm-1.155-2h38.632l19.316 33.456-19.316 33.457h-38.632l-19.314-33.457z" transform="translate(-531.656 83.66)"/><path d="m1671.292 40.428 18.161 31.456-18.161 31.457h-36.323l-18.162-31.457 18.162-31.456z" transform="translate(-1092.366 83.66)"/><path d="m1634.969 40.428-18.162 31.456 18.162 31.457h36.323l18.161-31.457-18.161-31.456zm-1.155-2h38.632l19.316 33.456-19.316 33.457h-38.632l-19.314-33.457z" transform="translate(-1092.366 83.66)"/><path d="m1671.292 40.428 18.161 31.456-18.161 31.457h-36.323l-18.162-31.457 18.162-31.456z" transform="translate(-195.303 83.66)"/><path d="m1634.969 40.428-18.162 31.456 18.162 31.457h36.323l18.161-31.457-18.161-31.456zm-1.155-2h38.632l19.316 33.456-19.316 33.457h-38.632l-19.314-33.457z" transform="translate(-195.303 83.66)"/><path d="m1671.292 40.428 18.161 31.456-18.161 31.457h-36.323l-18.162-31.457 18.162-31.456z" transform="translate(-980.276 83.66)"/><path d="m1634.969 40.428-18.162 31.456 18.162 31.457h36.323l18.161-31.457-18.161-31.456zm-1.155-2h38.632l19.316 33.456-19.316 33.457h-38.632l-19.314-33.457z" transform="translate(-980.276 83.66)"/><path d="m1671.292 40.428 18.161 31.456-18.161 31.457h-36.323l-18.162-31.457 18.162-31.456z" transform="translate(-83.214 83.66)"/><path d="m1634.969 40.428-18.162 31.456 18.162 31.457h36.323l18.161-31.457-18.161-31.456zm-1.155-2h38.632l19.316 33.456-19.316 33.457h-38.632l-19.314-33.457z" transform="translate(-83.214 83.66)"/><path d="m1671.292 40.428 18.161 31.456-18.161 31.457h-36.323l-18.162-31.457 18.162-31.456z" transform="translate(-1316.608 83.66)"/><path d="m1634.969 40.428-18.162 31.456 18.162 31.457h36.323l18.161-31.457-18.161-31.456zm-1.155-2h38.632l19.316 33.456-19.316 33.457h-38.632l-19.314-33.457z" transform="translate(-1316.608 83.66)"/></g><path d="m1671.292 40.428 18.161 31.456-18.161 31.457h-36.323l-18.162-31.457 18.162-31.456z" fill="#f1f1f1" transform="translate(-419.545 83.66)"/><path d="m1634.969 40.428-18.162 31.456 18.162 31.457h36.323l18.161-31.457-18.161-31.456zm-1.155-2h38.632l19.316 33.456-19.316 33.457h-38.632l-19.314-33.457z" fill="#e8e8e8" transform="translate(-419.545 83.66)"/><path d="m1671.292 40.428 18.161 31.456-18.161 31.457h-36.323l-18.162-31.457 18.162-31.456z" fill="#e8e8e8" transform="translate(-1204.521 83.66)"/><path d="m1634.969 40.428-18.162 31.456 18.162 31.457h36.323l18.161-31.457-18.161-31.456zm-1.155-2h38.632l19.316 33.456-19.316 33.457h-38.632l-19.314-33.457z" fill="#e8e8e8" transform="translate(-1204.521 83.66)"/><path d="m1671.292 40.428 18.161 31.456-18.161 31.457h-36.323l-18.162-31.457 18.162-31.456z" fill="#e8e8e8" transform="translate(-307.458 83.66)"/><path d="m1634.969 40.428-18.162 31.456 18.162 31.457h36.323l18.161-31.457-18.161-31.456zm-1.155-2h38.632l19.316 33.456-19.316 33.457h-38.632l-19.314-33.457z" fill="#e8e8e8" transform="translate(-307.458 83.66)"/><path d="m1671.292 40.428 18.161 31.456-18.161 31.457h-36.323l-18.162-31.457 18.162-31.456z" fill="#f1f1f1" transform="translate(-868.166 83.66)"/><path d="m1634.969 40.428-18.162 31.456 18.162 31.457h36.323l18.161-31.457-18.161-31.456zm-1.155-2h38.632l19.316 33.456-19.316 33.457h-38.632l-19.314-33.457z" fill="#e8e8e8" transform="translate(-868.166 83.66)"/><path d="m1671.292 40.428 18.161 31.456-18.161 31.457h-36.323l-18.162-31.457 18.162-31.456z" fill="#f1f1f1" transform="translate(28.896 83.66)"/><path d="m1634.969 40.428-18.162 31.456 18.162 31.457h36.323l18.161-31.457-18.161-31.456zm-1.155-2h38.632l19.316 33.456-19.316 33.457h-38.632l-19.314-33.457z" fill="#e8e8e8" transform="translate(28.896 83.66)"/><path d="m1671.292 40.428 18.161 31.456-18.161 31.457h-36.323l-18.162-31.457 18.162-31.456z" fill="#e8e8e8" transform="translate(-756.078 83.66)"/><path d="m1634.969 40.428-18.162 31.456 18.162 31.457h36.323l18.161-31.457-18.161-31.456zm-1.155-2h38.632l19.316 33.456-19.316 33.457h-38.632l-19.314-33.457z" fill="#e8e8e8" transform="translate(-756.078 83.66)"/><path d="m1671.292 40.428 18.161 31.456-18.161 31.457h-36.323l-18.162-31.457 18.162-31.456z" fill="#e8e8e8" transform="translate(-643.967 83.66)"/><path d="m1634.969 40.428-18.162 31.456 18.162 31.457h36.323l18.161-31.457-18.161-31.456zm-1.155-2h38.632l19.316 33.456-19.316 33.457h-38.632l-19.314-33.457z" fill="#e8e8e8" transform="translate(-643.967 83.66)"/></g></svg>